<?xml version="1.0" standalone="no"?>
<!DOCTYPE svg PUBLIC "-//W3C//DTD SVG 20010904//EN"
 "http://www.w3.org/TR/2001/REC-SVG-20010904/DTD/svg10.dtd">
<svg version="1.0" xmlns="http://www.w3.org/2000/svg"
 width="420.000000pt" height="420.000000pt" viewBox="0 0 420.000000 420.000000"
 preserveAspectRatio="xMidYMid meet">
<metadata>
Created by potrace 1.14, written by Peter Selinger 2001-2017
</metadata>
<g transform="translate(0.000000,420.000000) scale(0.100000,-0.100000)"
fill="#000000" stroke="none">
<path d="M2620 2992 c-20 -34 -45 -57 -80 -76 l-50 -27 0 -65 0 -64 36 15 c19
8 48 24 65 35 l29 21 0 -175 0 -176 70 0 70 0 -2 278 -3 277 -52 3 -53 3 -30
-49z"/>
<path d="M620 2885 l0 -145 240 0 240 0 0 145 0 145 -240 0 -240 0 0 -145z"/>
<path d="M2937 3005 c-62 -42 -80 -92 -85 -224 -5 -144 12 -205 72 -253 54
-44 141 -51 201 -16 81 47 121 192 96 344 -20 118 -83 174 -193 174 -41 0 -62
-6 -91 -25z m133 -107 c16 -27 20 -51 20 -136 0 -118 -16 -165 -53 -160 -38 5
-52 52 -52 176 0 107 1 115 24 133 31 26 38 24 61 -13z"/>
<path d="M3404 3020 c-53 -8 -99 -42 -126 -93 -19 -36 -22 -59 -23 -157 0 -68
5 -134 14 -162 33 -114 171 -163 272 -95 56 36 83 105 87 220 5 111 -8 177
-44 224 -41 54 -100 74 -180 63z m71 -130 c11 -21 15 -61 15 -145 0 -102 -2
-117 -20 -135 -24 -24 -34 -25 -54 -5 -22 22 -31 75 -31 183 0 87 2 95 24 113
32 26 48 24 66 -11z"/>
<path d="M2412 2559 c-18 -5 -67 -34 -109 -64 -69 -50 -81 -55 -128 -55 -29 0
-93 -3 -143 -6 -87 -7 -92 -8 -92 -30 0 -17 7 -24 30 -29 16 -3 41 -15 55 -26
22 -18 25 -28 25 -84 0 -35 -4 -67 -10 -70 -25 -16 -4 -22 73 -21 l82 1 3
-503 2 -503 -82 3 -83 3 -3 67 -3 68 -24 -16 c-48 -31 -139 -44 -360 -51 -121
-4 -210 -9 -197 -11 18 -3 22 -10 22 -43 l0 -39 1180 0 1180 0 0 44 0 43 -102
5 c-119 6 -199 32 -255 82 -20 17 -55 38 -77 46 l-41 16 0 384 0 385 35 3 c44
4 63 20 33 28 -15 4 -28 21 -39 51 -30 79 8 128 94 120 l42 -5 0 39 0 39 -547
0 -548 0 36 36 c33 32 39 35 59 24 21 -11 22 -11 17 11 -4 13 -7 27 -7 31 0
10 -56 38 -72 37 -7 0 -28 -5 -46 -10z m-24 -898 c2 -475 1 -502 -15 -499 -15
3 -18 16 -21 86 -2 68 0 82 13 82 19 0 20 29 0 36 -13 5 -15 59 -15 398 0 216
3 396 7 400 25 25 28 -21 31 -503z m872 4 l0 -505 -45 0 -45 0 0 375 c0 325
-2 376 -15 381 -12 5 -15 29 -15 130 l0 124 60 0 60 0 0 -505z m-486 434 c57
-16 110 -54 156 -113 l40 -53 0 -342 c0 -298 2 -345 16 -366 l16 -25 -262 0
c-254 0 -263 1 -247 18 15 17 17 57 17 369 l0 350 29 40 c53 74 117 117 191
132 3 0 23 -4 44 -10z"/>
<path d="M370 1470 c-7 -17 -21 -35 -31 -41 -14 -7 -19 -21 -19 -49 0 -44 5
-48 32 -23 17 15 18 12 18 -85 l0 -102 35 0 35 0 0 165 0 165 -29 0 c-22 0
-31 -6 -41 -30z"/>
<path d="M507 1483 c-41 -47 -48 -221 -9 -272 28 -38 87 -37 116 2 18 24 21
42 21 127 0 84 -3 103 -21 127 -26 35 -81 43 -107 16z m71 -155 c-3 -77 -11
-99 -28 -82 -16 16 -23 136 -10 169 11 29 12 30 26 10 12 -15 15 -40 12 -97z"/>
<path d="M670 1458 c-16 -26 -20 -51 -20 -120 0 -48 4 -98 9 -111 23 -61 80
-76 122 -31 22 23 24 36 27 127 2 88 0 106 -17 135 -18 27 -26 32 -61 32 -35
0 -43 -4 -60 -32z m74 -44 c3 -9 6 -49 6 -89 0 -72 -13 -103 -31 -74 -10 16
-12 163 -2 172 11 11 20 8 27 -9z"/>
<path d="M1058 1362 c-35 -3 -38 -6 -38 -33 0 -37 -24 -35 -28 3 -3 24 -6 26
-68 27 l-64 1 0 -40 0 -40 45 0 c48 0 64 19 18 21 -24 2 -25 2 -5 6 12 2 22
12 22 21 1 9 7 3 14 -14 21 -47 54 -56 86 -24 16 16 20 17 20 5 0 -22 40 -19
40 3 1 16 1 16 14 0 7 -10 24 -18 37 -18 18 0 20 3 11 12 -7 7 -12 17 -12 22
0 6 7 0 16 -12 20 -29 79 -31 94 -2 24 44 -31 85 -75 56 -13 -9 -26 -12 -29
-7 -7 11 -51 17 -98 13z m167 -40 c0 -18 -20 -15 -23 4 -3 10 1 15 10 12 7 -3
13 -10 13 -16z"/>
</g>
</svg>
